<?xml version="1.0" encoding="utf-8"?>
<!-- Generator: Adobe Illustrator 25.0.0, SVG Export Plug-In . SVG Version: 6.00 Build 0)  -->
<svg version="1.1" id="Calque_1" xmlns="http://www.w3.org/2000/svg" xmlns:xlink="http://www.w3.org/1999/xlink" x="0px" y="0px"
	 viewBox="0 0 1920 1080" style="enable-background:new 0 0 1920 1080;" xml:space="preserve">
<style type="text/css">
	.st0{fill:#6366F1;}
</style>
<path class="st0" d="M909.5,257.5v313.4c0,39.2-6,70.8-19.6,93.4c-19.6,36.2-49.7,64.8-87.4,84.4c-37.7,21.1-78.3,31.6-120.5,31.6
	c-54.2,0-128.1-22.6-221.5-69.3V540.8c0-24.1,4.5-42.2,15.1-52.7c9-10.5,22.6-15.1,37.7-15.1c15.1,0,27.1,4.5,37.7,15.1
	c9,10.5,15.1,28.6,15.1,52.7v100.9c46.7,22.6,87.4,33.1,122,33.1c18.1,0,36.2-4.5,55.7-12.1c19.6-7.5,33.1-18.1,43.7-30.1
	c9-12.1,16.6-22.6,19.6-34.7c1.5-6,3-21.1,3-43.7V257.5H685c-25.6,0-42.2-4.5-52.7-15.1c-10.5-9-16.6-22.6-16.6-37.7
	s6-28.6,16.6-37.7c10.5-9,28.6-15.1,52.7-15.1h289.3c24.1,0,42.2,4.5,52.7,15.1c10.5,9,16.6,22.6,16.6,37.7s-4.5,28.6-16.6,37.7
	c-10.5,9-28.6,15.1-52.7,15.1H914H909.5z"/>
<path class="st0" d="M1126.5,726.1v102.5h100.9c24.1,0,40.7,4.5,51.2,13.6c10.5,9,15.1,21.1,15.1,36.2s-4.5,27.1-15.1,36.2
	c-10.5,9-27.1,13.6-51.2,13.6H1012c-24.1,0-40.7-4.5-51.2-13.6c-10.5-9-15.1-21.1-15.1-36.2s4.5-27.1,15.1-36.2
	c10.5-9,27.1-13.6,51.2-13.6h15.1V438.3H1012c-24.1,0-40.7-4.5-51.2-13.6c-10.5-9-15.1-21.1-15.1-36.2c0-15.1,4.5-27.1,15.1-36.2
	c10.5-9,27.1-13.6,51.2-13.6h229c67.8,0,120.5,19.6,159.7,55.7c39.2,36.2,58.8,81.4,58.8,134.1c0,28.6-6,57.3-19.6,82.9
	c-10.5,19.6-27.1,39.2-49.7,57.3c-24.1,19.6-48.2,33.1-72.3,42.2c-24.1,9-57.3,13.6-96.4,13.6h-94.9V726.1z M1126.5,613.1h91.9
	c43.7,0,78.3-9,104-28.6s37.7-43.7,37.7-70.8c0-22.6-10.5-43.7-30.1-61.8c-21.1-18.1-49.7-25.6-88.9-25.6h-114.5v188.3V613.1z"/>
</svg>
