<?xml version="1.0" encoding="UTF-8"?>
<svg id="Calque_1" data-name="Calque 1" xmlns="http://www.w3.org/2000/svg" viewBox="0 0 6.63 5.14">
  <defs>
    <style>
      .cls-1 {
        fill: tomato;
        stroke-width: 0px;
      }
    </style>
  </defs>
  <path class="cls-1" d="M2.98.69v2.08c0,.26-.04.47-.13.62-.13.24-.33.43-.58.56-.25.14-.52.21-.8.21-.36,0-.85-.15-1.47-.46v-1.13c0-.16.03-.28.1-.35.06-.07.15-.1.25-.1s.18.03.25.1c.06.07.1.19.1.35v.67c.31.15.58.22.81.22.12,0,.24-.03.37-.08s.22-.12.29-.2c.06-.08.11-.15.13-.23.01-.04.02-.14.02-.29V.69h-.83c-.17,0-.28-.03-.35-.1-.07-.06-.11-.15-.11-.25s.04-.19.11-.25c.07-.06.19-.1.35-.1h1.92c.16,0,.28.03.35.1.07.06.11.15.11.25s-.03.19-.11.25c-.07.06-.19.1-.35.1h-.4Z"/>
  <path class="cls-1" d="M4.42,3.8v.68h.67c.16,0,.27.03.34.09.07.06.1.14.1.24s-.03.18-.1.24-.18.09-.34.09h-1.43c-.16,0-.27-.03-.34-.09s-.1-.14-.1-.24.03-.18.1-.24c.07-.06.18-.09.34-.09h.1V1.89h-.1c-.16,0-.27-.03-.34-.09s-.1-.14-.1-.24.03-.18.1-.24c.07-.06.18-.09.34-.09h1.52c.45,0,.8.13,1.06.37.26.24.39.54.39.89,0,.19-.04.38-.13.55-.07.13-.18.26-.33.38-.16.13-.32.22-.48.28-.16.06-.38.09-.64.09h-.63ZM4.42,3.05h.61c.29,0,.52-.06.69-.19.17-.13.25-.29.25-.47,0-.15-.07-.29-.2-.41-.14-.12-.33-.17-.59-.17h-.76v1.25Z"/>
</svg>