<?xml version="1.0" encoding="utf-8"?>
<!-- Generator: Adobe Illustrator 25.0.0, SVG Export Plug-In . SVG Version: 6.00 Build 0)  -->
<svg version="1.1" id="Calque_1" xmlns="http://www.w3.org/2000/svg" xmlns:xlink="http://www.w3.org/1999/xlink" x="0px" y="0px"
	 viewBox="0 0 6.6 5.1" style="enable-background:new 0 0 6.6 5.1;" xml:space="preserve">
<style type="text/css">
	.st0{fill:#6366F1;}
</style>
<path class="st0" d="M3,0.7v2.1c0,0.3,0,0.5-0.1,0.6C2.7,3.6,2.5,3.8,2.3,3.9C2,4.1,1.8,4.2,1.5,4.2C1.1,4.2,0.6,4,0,3.7V2.6
	c0-0.2,0-0.3,0.1-0.3c0.1-0.1,0.2-0.1,0.2-0.1s0.2,0,0.3,0.1c0.1,0.1,0.1,0.2,0.1,0.3v0.7C1,3.4,1.3,3.5,1.5,3.5
	c0.1,0,0.2,0,0.4-0.1s0.2-0.1,0.3-0.2C2.2,3.1,2.3,3,2.3,2.9c0,0,0-0.1,0-0.3v-2H1.5c-0.2,0-0.3,0-0.4-0.1C1.1,0.5,1,0.4,1,0.3
	s0-0.2,0.1-0.2S1.3,0,1.5,0h1.9c0.2,0,0.3,0,0.3,0.1c0.1,0.1,0.1,0.2,0.1,0.2s0,0.2-0.1,0.2C3.7,0.6,3.6,0.7,3.4,0.7H3L3,0.7z"/>
<path class="st0" d="M4.4,3.8v0.7h0.7c0.2,0,0.3,0,0.3,0.1s0.1,0.1,0.1,0.2S5.5,5,5.4,5S5.3,5.1,5.1,5.1H3.7c-0.2,0-0.3,0-0.3-0.1
	S3.2,4.9,3.2,4.8s0-0.2,0.1-0.2s0.2-0.1,0.3-0.1h0.1V1.9H3.7c-0.2,0-0.3,0-0.3-0.1S3.2,1.7,3.2,1.6s0-0.2,0.1-0.2s0.2-0.1,0.3-0.1
	h1.5c0.4,0,0.8,0.1,1.1,0.4s0.4,0.5,0.4,0.9c0,0.2,0,0.4-0.1,0.5C6.4,3.2,6.3,3.3,6.2,3.4C6,3.5,5.8,3.6,5.7,3.7S5.3,3.8,5.1,3.8
	L4.4,3.8L4.4,3.8z M4.4,3H5C5.3,3,5.6,3,5.7,2.9C5.9,2.7,6,2.6,6,2.4C6,2.2,5.9,2.1,5.8,2C5.6,1.9,5.4,1.8,5.2,1.8H4.4V3L4.4,3z"/>
</svg>
